<?xml version="1.0" encoding="utf-8"?>
<!-- Generator: Adobe Illustrator 21.1.0, SVG Export Plug-In . SVG Version: 6.00 Build 0)  -->
<svg version="1.1" id="圖層_1" xmlns="http://www.w3.org/2000/svg" xmlns:xlink="http://www.w3.org/1999/xlink" x="0px" y="0px"
	 viewBox="0 0 100 100" style="enable-background:new 0 0 100 100;" xml:space="preserve">
<style type="text/css">
	.st0{fill:#FFE900;}
	.st1{fill:#008BD5;}
</style>
<g>
	<path class="st0" d="M49.6,0.4C22.1,0.6-0.2,22.8-0.2,50.2c0,27.4,22.3,49.6,49.8,49.8c27.6-0.2,49.9-22.5,49.9-49.8
		C99.5,22.8,77.2,0.6,49.6,0.4"/>
	<path class="st1" d="M79.5,62.9c-0.2,0-0.3,0-0.5,0.1l-0.2,0.1v0c-8.7,5.7-18.8,8.7-29.3,8.7c-10.5,0-20.6-3-29.2-8.7v0l-0.2-0.1
		c-0.1-0.1-0.3-0.2-0.5-0.2c-0.5,0-0.8,0.4-0.8,0.8c0,0.2,0.1,0.4,0.2,0.6c7.6,8.9,18.7,13.9,30.5,13.9c11.7,0,22.8-5.1,30.4-13.9
		l0,0l0-0.1c0.2-0.1,0.2-0.3,0.2-0.6C80.4,63.3,80,62.9,79.5,62.9z"/>
	<path class="st1" d="M32.8,35.7c0-0.2,0-0.3-0.1-0.5c-0.1-0.1-0.3-0.2-0.5-0.2H20.6c-0.4,0-0.9,0.3-1,0.7c0,0.2,0,0.3,0.1,0.5
		c0.1,0.1,0.3,0.2,0.5,0.2h11.6C32.3,36.4,32.7,36.1,32.8,35.7z"/>
	<path class="st1" d="M33.3,42.4H17c-0.6,0-1.1,0.4-1.2,0.9l-1.1,5.3c0,0.2,0,0.4,0.1,0.6c0.1,0.2,0.4,0.3,0.7,0.3h16.3
		c0.6,0,1.1-0.4,1.2-0.9l1.1-5.3c0-0.2,0-0.4-0.1-0.6C33.8,42.5,33.6,42.4,33.3,42.4z M22.3,47.4c-0.1,0.4-0.5,0.7-0.9,0.7h-2.9
		c-0.2,0-0.4-0.1-0.6-0.2c-0.1-0.1-0.2-0.3-0.1-0.5c0.1-0.4,0.5-0.7,0.9-0.7h2.9c0.2,0,0.4,0.1,0.6,0.2C22.3,47,22.3,47.2,22.3,47.4
		z M22.9,44.5c-0.1,0.4-0.5,0.7-0.9,0.7h-2.9c-0.2,0-0.4-0.1-0.6-0.2c-0.1-0.1-0.2-0.3-0.1-0.5c0.1-0.4,0.5-0.7,0.9-0.7h2.9
		c0.2,0,0.4,0.1,0.6,0.2C22.9,44.2,22.9,44.3,22.9,44.5z M30,47.4c-0.1,0.4-0.5,0.7-0.8,0.7h-3c-0.2,0-0.4-0.1-0.5-0.2
		c-0.1-0.1-0.2-0.3-0.1-0.6c0.1-0.4,0.5-0.7,0.8-0.7h3c0.2,0,0.4,0.1,0.5,0.2C30,47,30.1,47.2,30,47.4z M30.6,44.5
		c-0.1,0.4-0.5,0.7-0.8,0.7h-3c-0.2,0-0.4-0.1-0.5-0.2c-0.1-0.1-0.2-0.3-0.1-0.6c0.1-0.4,0.5-0.7,0.8-0.7h3c0.2,0,0.4,0.1,0.5,0.2
		C30.6,44.1,30.7,44.3,30.6,44.5z"/>
	<path class="st1" d="M33.3,37.3h-14c-0.7,0-1.4,0.5-1.5,1.1l-0.4,1.7c-0.1,0.3,0,0.5,0.2,0.7c0.2,0.2,0.5,0.4,0.8,0.4h14
		c0.7,0,1.4-0.5,1.5-1.1l0.4-1.7c0.1-0.3,0-0.5-0.2-0.7C33.9,37.5,33.6,37.3,33.3,37.3z M31.2,39.3c-0.1,0.3-0.4,0.5-0.7,0.5h-9.5
		c-0.2,0-0.3-0.1-0.4-0.2c-0.1-0.1-0.1-0.3-0.1-0.4c0.1-0.3,0.4-0.5,0.7-0.5h9.5c0.2,0,0.3,0.1,0.4,0.2C31.2,39,31.2,39.2,31.2,39.3
		z"/>
	<path class="st1" d="M36,32.5h-7.4l0-0.1c0.1-0.4,0-0.7-0.2-1c-0.2-0.3-0.6-0.5-1.1-0.5c-0.9,0-1.8,0.7-2,1.5v0.1l-0.1,0h-7.4
		c-0.9,0-1.7,0.6-1.9,1.4l-0.1,0.4c-0.1,0.3,0,0.6,0.2,0.9c0.2,0.3,0.6,0.4,1,0.4c0.8,0,1.6-0.6,1.8-1.3l0.1-0.4h15.4l-0.1,0.4
		c-0.1,0.3,0,0.6,0.2,0.9c0.2,0.3,0.6,0.4,1,0.4c0.8,0,1.6-0.6,1.8-1.3l0.1-0.4c0.1-0.4,0-0.7-0.2-0.9C36.8,32.6,36.4,32.5,36,32.5z
		"/>
	<path class="st1" d="M42.2,34.4c0.7-0.1,1.3-0.7,1.5-1.3l0.1-0.3c0.1-0.3,0-0.7-0.2-0.9c-0.2-0.3-0.5-0.4-0.9-0.4
		c-0.8,0-1.6,0.6-1.7,1.4l-0.1,0.3c-0.1,0.4,0,0.7,0.3,1C41.3,34.4,41.7,34.5,42.2,34.4z"/>
	<path class="st1" d="M57.6,47.7H41.3l2.3-10.9c0.1-0.3,0-0.5-0.2-0.7c-0.2-0.2-0.4-0.3-0.7-0.3h-2.6c-0.4,0-0.9,0.3-1,0.8
		c0,0.2,0,0.4,0.1,0.5c0.1,0.1,0.3,0.2,0.5,0.2h0.9l-2.2,10.5h-0.1c-0.4,0-0.9,0.3-1,0.8c0,0.2,0,0.4,0.1,0.5
		c0.1,0.1,0.3,0.2,0.5,0.2h19.3c0.3,0,0.6-0.2,0.8-0.5c0.2-0.2,0.2-0.5,0.1-0.7C58,47.8,57.8,47.7,57.6,47.7z"/>
	<path class="st1" d="M60.5,34.1H52l0.8-1.1c0.3-0.4,0.3-0.8,0.2-1.2c-0.2-0.3-0.5-0.5-0.9-0.5c-0.5,0-1,0.3-1.3,0.7l-1.6,2.1h-3
		c-0.4,0-0.9,0.3-1,0.8c0,0.2,0,0.4,0.1,0.5c0.1,0.1,0.3,0.2,0.5,0.2h2.3L45.6,39c-0.3,0.4-0.4,0.8-0.2,1.2c0.2,0.3,0.5,0.5,0.9,0.5
		h4.7l-0.4,2.1h-6.4c-0.4,0-0.9,0.3-1,0.8c0,0.2,0,0.4,0.1,0.5c0.1,0.1,0.3,0.2,0.5,0.2h6.5L50,45.6c-0.1,0.3,0,0.7,0.2,0.9
		c0.2,0.3,0.5,0.4,0.9,0.4c0.8,0,1.6-0.6,1.7-1.3l0.3-1.3h4.5c0.3,0,0.6-0.2,0.8-0.4c0.2-0.2,0.2-0.5,0.1-0.7
		c-0.1-0.2-0.3-0.3-0.6-0.3h-4.6l0.4-2.1h3.7c0.3,0,0.6-0.2,0.8-0.5c0.2-0.2,0.2-0.5,0.1-0.7c-0.1-0.2-0.3-0.3-0.6-0.3h-3.7l0-0.2
		c0.1-0.3,0-0.7-0.2-0.9c-0.2-0.3-0.5-0.4-0.9-0.4c-0.8,0-1.6,0.6-1.7,1.3l0,0.1h-3.2l2.8-3.8h9.2c0.3,0,0.6-0.2,0.8-0.5
		c0.2-0.2,0.2-0.5,0.1-0.7C61,34.2,60.8,34.1,60.5,34.1z"/>
	<g>
		<path class="st1" d="M84.5,31.6c-0.2-0.2-0.5-0.4-0.9-0.4H66.7c-0.7,0-1.5,0.6-1.6,1.2l-3.3,15.4c-0.1,0.3,0,0.7,0.2,0.9
			c0.2,0.3,0.6,0.4,1,0.4c0.8,0,1.7-0.6,1.8-1.4l3-14.2c0.1-0.5,0.7-1,1.3-1h11.3c0.3,0,0.6,0.1,0.8,0.3c0.2,0.2,0.2,0.4,0.2,0.7
			l-3,14h-0.7c-0.5,0-1,0.4-1.1,0.8c0,0.2,0,0.4,0.1,0.5c0.1,0.2,0.3,0.2,0.6,0.2h2.5c0.7,0,1.3-0.5,1.4-1.1l3.3-15.7
			C84.7,32.1,84.6,31.8,84.5,31.6z"/>
		<path class="st1" d="M71.3,39.8L71.3,39.8l2.2-3.2c0.2-0.3,0.2-0.6,0.2-0.8c0-0.2-0.2-0.4-0.3-0.4c-0.1-0.1-0.2-0.1-0.4-0.1
			c-0.4,0-0.8,0.2-1,0.6l-1.2,1.8l-0.4-1.8c-0.1-0.2-0.2-0.4-0.4-0.5c-0.1-0.1-0.2-0.1-0.4-0.1c-0.1,0-0.3,0-0.4,0.1
			c-0.5,0.2-0.9,0.8-0.7,1.3l0.8,3.2l0,0v0L67.1,43c-0.2,0.3-0.2,0.6-0.2,0.8c0,0.2,0.2,0.4,0.3,0.4c0.4,0.2,1,0,1.4-0.5l1.2-1.8
			l0,0l0.4,1.8c0.1,0.2,0.2,0.4,0.4,0.5c0.2,0.1,0.5,0.1,0.8,0c0.5-0.2,0.9-0.8,0.7-1.3L71.3,39.8z"/>
		<path class="st1" d="M77.4,44.3c0.5-0.2,0.9-0.8,0.7-1.3l-0.7-2.9l0-0.1l0-0.1l0.2-0.3l2-3c0.2-0.3,0.2-0.6,0.2-0.8
			c0-0.2-0.2-0.4-0.3-0.4c-0.1-0.1-0.2-0.1-0.4-0.1c-0.4,0-0.8,0.2-1,0.6l-1,1.5v0l-0.2,0.3l0-0.1l0-0.1l-0.4-1.5
			c-0.1-0.2-0.2-0.4-0.4-0.5c-0.1-0.1-0.2-0.1-0.4-0.1c-0.1,0-0.3,0-0.4,0.1c-0.5,0.2-0.9,0.8-0.7,1.3l0.7,2.9l0,0.1l0,0.1L73.1,43
			c-0.2,0.3-0.2,0.6-0.2,0.8c0,0.2,0.2,0.4,0.3,0.4c0.4,0.2,1,0,1.4-0.5l1.2-1.8l0,0l0,0.1l0,0.1l0.4,1.5c0.1,0.2,0.2,0.4,0.4,0.5
			C76.9,44.4,77.1,44.4,77.4,44.3z"/>
	</g>
</g>
</svg>
